<svg width="16" height="16" viewBox="0 0 16 16" fill="none" xmlns="http://www.w3.org/2000/svg">
  <defs>
    <linearGradient id="bgGradient16" x1="0%" y1="0%" x2="100%" y2="100%">
      <stop offset="0%" style="stop-color:#1e40af;stop-opacity:1" />
      <stop offset="100%" style="stop-color:#3b82f6;stop-opacity:1" />
    </linearGradient>
    <linearGradient id="accentGradient16" x1="0%" y1="0%" x2="100%" y2="100%">
      <stop offset="0%" style="stop-color:#60a5fa;stop-opacity:1" />
      <stop offset="100%" style="stop-color:#93c5fd;stop-opacity:1" />
    </linearGradient>
  </defs>
  
  <!-- Background circle with gradient -->
  <circle cx="8" cy="8" r="7.5" fill="url(#bgGradient16)" stroke="#1e3a8a" stroke-width="0.5"/>
  
  <!-- Main B shape -->
  <path d="M4 3h4c1.25 0 2.25 1 2.25 2.25S9.25 7.5 8 7.5h-1l3 3.25V13H4V3z" fill="white" opacity="0.95"/>
  
  <!-- B accent lines -->
  <path d="M5 5h3c0.5 0 0.75 0.25 0.75 0.75S8.5 6.5 8 6.5h-3V5z" fill="url(#accentGradient16)"/>
  <path d="M5 7.5h3c0.5 0 0.75 0.25 0.75 0.75S8.5 9 8 9h-3V7.5z" fill="url(#accentGradient16)"/>
  
  <!-- Tech circuit lines -->
  <path d="M11 4l1-1M12 6l1-1" stroke="#60a5fa" stroke-width="0.5" opacity="0.6"/>
  <path d="M3 4l-1-1M2 6l-1-1" stroke="#60a5fa" stroke-width="0.5" opacity="0.6"/>
  
  <!-- Glowing dots -->
  <circle cx="13" cy="3" r="0.5" fill="#60a5fa"/>
  <circle cx="3" cy="13" r="0.5" fill="#60a5fa"/>
</svg> 